<svg xmlns="http://www.w3.org/2000/svg" viewBox="0 0 3628.4 2040.9"><defs><style>.cls-1{isolation:isolate}.cls-2{fill:#e8e8e8}.cls-3{fill:#5b5c5f}.cls-4{fill:#cfd3d4}.cls-5{fill:#fff}.cls-12,.cls-6{mix-blend-mode:multiply}.cls-7{fill:#252153}.cls-8{fill:#70c9f1}.cls-9{fill:#96ca66}.cls-10{fill:#d4edfc}.cls-11{fill:#003c64}.cls-12{fill:#0069b4;opacity:.1}.cls-13,.cls-15,.cls-16{fill:none}.cls-13{stroke:#0ab9eb}.cls-13,.cls-14,.cls-15,.cls-16{stroke-linecap:round}.cls-13,.cls-14,.cls-15{stroke-linejoin:round}.cls-13,.cls-14{stroke-width:32px}.cls-14{fill:#49af57;stroke:#419c4d}.cls-15,.cls-16{stroke:#fff;stroke-width:34.59px}.cls-16{stroke-miterlimit:10}</style></defs><title>Security new brand</title><g class="cls-1"><g id="Layer_1" data-name="Layer 1"><path class="cls-2" d="M-11-39h3662.7v2117.65H-11z"/><rect class="cls-3" x="431.2" y="89.1" width="2166.5" height="1572.05" rx="102.4" ry="102.4"/><path class="cls-4" d="M1219.6 1657.3h589.7v150.57h-589.7z"/><path class="cls-5" d="M2006 1857a49.3 49.3 0 0 1-49.2 49.2h-884.7a49.2 49.2 0 0 1 0-98.4h884.8a49.2 49.2 0 0 1 49.1 49.2z"/><g class="cls-6"><path class="cls-7" d="M1056.4 313.1c176.3 235.7-88.3 500.3-324 324a21.7 21.7 0 0 1-4.4-4.4c-176.3-235.7 88.3-500.3 324-324a21.7 21.7 0 0 1 4.4 4.4z"/><path class="cls-8" d="M1095 387.4c-33.9 23.1-64.4 50.4-91.8 80.6a756.1 756.1 0 0 0-73.6 96.2q-8.5 13-16.4 26.3c-2.5 4.1-4.8 8.2-7.2 12.3-1.4 2.4-2.8 6.1-4.6 8.2s-5 2.5-6.1-.8-.2-10-.2-13.9a261.4 261.4 0 0 1 1.5-34.1c4.1-38.6 15-76.4 31-111.8s36.1-67.1 59.1-97.5c5.7-7.5 11.3-15 17.5-22s13.3-13.5 19.1-20.9c2.7-3.4 15.5-15.6 19.1-19q10.4-9.8 21.5-18.7c31.5-25.2 67-44.3 106-54.8 9.6-2.6 20-7.4 30-7.4h16.1c6 0 9.4 1.4 14.4 4.5 14.8 9 26.8 21.8 36.6 36a254.2 254.2 0 0 1 13.6 22.6c2.2 4 11.8 17 7.7 21.2-1.7 1.7-5.7 1.9-7.9 2.4-5.4 1.3-10.7 2.7-16.1 4.3-10.2 3-20.2 6.5-30.1 10.4a678.9 678.9 0 0 0-111.7 56.6"/><path class="cls-9" d="M943.9 404.7c-16 30-30.7 59.6-39.9 92.5a429.4 429.4 0 0 0-14.8 96.1c-.2 4-.5 8-.4 12 .1 1.9 1.2 4.8.5 6.7-2.9 7.9-9.4-2.6-11.6-5.4-9.7-12.6-19-25.4-27.7-38.8a642.4 642.4 0 0 1-44.5-80.7q-10.9-23.5-20.2-47.7-4.9-12.7-9.4-25.5c-2.1-5.9-8.2-16-3.7-21.9 23 21.3 51.6 34.9 83.2 35.5s60.9-9.8 88.4-22.7"/></g><rect class="cls-10" x="799.3" y="-137.2" width="1430.3" height="2024.78" rx="31.6" ry="31.6" transform="rotate(90 1514.45 875.15)"/><circle class="cls-11" cx="975.8" cy="631.9" r="306.9"/><path class="cls-12" d="M2495.3 89.1h-200.8L724.9 1661.2h1770.4c56.3 0 102.4-46.1 102.4-102.4V191.5c0-56.3-46.1-102.4-102.4-102.4z"/><path class="cls-5" d="M431.2 1264.6v294.1c0 56.3 46.1 102.4 102.4 102.4h1961.7c56.3 0 102.4-46.1 102.4-102.4v-294.1z"/><path class="cls-4" d="M1514.4 1528.2a57 57 0 1 1 57-57 57.1 57.1 0 0 1-57 57zm0-84.8a27.8 27.8 0 1 0 27.8 27.9 27.8 27.8 0 0 0-27.8-27.9z"/><path class="cls-13" d="M1183.5 516.9L934.7 807.2l-144-128.1"/><path class="cls-14" d="M3173.2 977.2c-241.2 0-330.9-139.4-330.9-139.4h-2.3s-89.8 139.4-331 139.4h-109.2v252.4s-4.2 519.6 441.3 676.6c445.6-157 441.3-676.6 441.3-676.6V977.2h-108"/><rect class="cls-15" x="2650.9" y="1242.6" width="387.7" height="306.04" rx="20.4" ry="20.4"/><path class="cls-16" d="M2865.2 1365.1a20.4 20.4 0 1 1-20.4-20.4 20.4 20.4 0 0 1 20.4 20.4zM2844.8 1385.5v61.2"/><path class="cls-15" d="M2957 1191.6v49.7M2732.6 1241.3v-49.7M2732.6 1191.6a112.2 112.2 0 1 1 224.4 0"/></g></g></svg>